<?xml version="1.0" encoding="UTF-8" standalone="no"?>
<svg
   version="1.1"
   id="Layer_1"
   x="0px"
   y="0px"
   width="100%"
   viewBox="0 0 716 535"
   enable-background="new 0 0 716 535"
   xml:space="preserve"
   sodipodi:docname="logo-licenser.svg"
   inkscape:version="1.2.2 (b0a8486541, 2022-12-01)"
   xmlns:inkscape="http://www.inkscape.org/namespaces/inkscape"
   xmlns:sodipodi="http://sodipodi.sourceforge.net/DTD/sodipodi-0.dtd"
   xmlns="http://www.w3.org/2000/svg"
   xmlns:svg="http://www.w3.org/2000/svg"><defs
   id="defs55" /><sodipodi:namedview
   id="namedview53"
   pagecolor="#ffffff"
   bordercolor="#000000"
   borderopacity="0.25"
   inkscape:showpageshadow="2"
   inkscape:pageopacity="0.0"
   inkscape:pagecheckerboard="0"
   inkscape:deskcolor="#d1d1d1"
   showgrid="false"
   inkscape:zoom="1.5495327"
   inkscape:cx="358.1725"
   inkscape:cy="225.87455"
   inkscape:window-width="1920"
   inkscape:window-height="1009"
   inkscape:window-x="-8"
   inkscape:window-y="-8"
   inkscape:window-maximized="1"
   inkscape:current-layer="Layer_1" />










<path
   fill="#111820"
   opacity="1.000000"
   stroke="none"
   d=" M232.465836,469.105225   C202.977478,469.126678 173.954010,469.085114 144.465637,469.106567   C136.170578,469.113800 128.335526,469.192047 120.513672,468.907593   C118.564362,468.836700 116.135933,468.122986 114.809761,466.812256   C95.488441,447.716064 76.316055,428.469208 57.116291,409.250122   C56.653656,408.786957 56.284695,408.230194 54.444584,406.147614   C57.323456,403.938629 60.471508,402.002960 63.037457,399.476196   C79.542664,383.223267 96.016411,366.935364 112.260483,350.422821   C115.576927,347.051575 118.838341,345.273376 123.584183,345.760529   C127.045311,346.115753 130.575790,345.795319 134.537827,345.697601   C165.023438,345.672424 195.046570,345.725739 225.995209,345.778503   C269.804810,345.798676 312.688934,345.828186 355.573029,345.829803   C361.385590,345.830017 367.198181,345.690643 373.472870,345.693481   C431.467194,345.791046 488.999359,345.812012 546.531555,345.822235   C547.357849,345.822388 548.184143,345.688446 549.010437,345.617096   C570.967712,345.688904 592.925293,345.836823 614.881958,345.756592   C618.490417,345.743408 621.049438,346.744812 623.612915,349.339996   C641.501831,367.449860 659.555481,385.396881 677.549194,403.403381   C678.818604,404.673737 680.030151,406.002014 681.890076,407.956360   C665.087585,424.559998 648.535828,440.915833 631.818970,457.572693   C631.130493,458.275604 630.460144,458.576782 630.105591,459.094269   C624.125427,467.822540 615.815979,469.368347 605.611694,469.234589   C564.057983,468.690094 522.492676,469.029022 480.466797,469.105164   C453.086243,469.113068 426.170563,469.038605 399.254852,469.009918   C379.813660,468.989197 360.372406,469.029419 340.466309,469.105408   C304.311188,469.126251 268.620941,469.084229 232.465836,469.105225  M579.674988,425.817291   C582.578064,428.312256 585.885925,430.469513 588.304565,433.368683   C594.357971,440.624786 602.031311,437.145203 609.375000,436.931458   C602.562378,430.995605 595.749695,425.059753 588.551575,418.788086   C603.871643,414.627472 608.035889,409.104034 608.010010,393.959869   C608.008606,393.127411 608.028198,392.294281 608.001099,391.462646   C607.720642,382.865692 602.734802,377.877625 594.198792,377.840179   C581.212708,377.783203 568.226135,377.801361 555.239929,377.838409   C549.274048,377.855438 547.862732,379.230011 547.845459,385.205994   C547.798279,401.521973 547.824524,417.838226 547.843750,434.154358   C547.845093,435.273132 548.028625,436.391724 548.131714,437.559052   C551.816650,437.559052 555.163147,437.559052 559.105835,437.559052   C559.105835,421.058929 559.105835,405.001251 559.105835,388.583679   C571.014648,388.583679 582.320862,388.534698 593.625061,388.663239   C594.696228,388.675446 596.338806,389.548309 596.728271,390.448822   C600.373535,398.876831 595.021606,407.072937 585.929504,407.140717   C578.481934,407.196228 571.033752,407.152039 563.358154,407.152039   C563.358154,411.117004 563.358154,414.488617 563.358154,418.453491   C570.906189,416.151245 574.580078,421.662781 579.674988,425.817291  M448.467834,438.007477   C451.298828,437.986176 454.140808,438.117767 456.958771,437.915100   C465.576630,437.295227 471.673218,432.105408 473.226685,424.238708   C475.664490,411.893616 467.868469,402.526672 454.665527,402.197510   C446.842072,402.002472 439.008606,402.241272 431.182495,402.112244   C426.278229,402.031403 424.012573,399.123596 424.634705,394.265747   C425.250488,389.457520 428.719238,388.603119 432.624695,388.573486   C442.617493,388.497650 452.611237,388.552643 462.604431,388.511261   C464.350342,388.504028 466.095398,388.282257 467.824280,388.160767   C467.824280,384.500275 467.824280,381.420410 467.824280,377.826508   C455.694000,377.826508 443.907684,377.782593 432.121826,377.839111   C420.744232,377.893677 413.500916,384.810242 413.497986,395.492676   C413.495026,406.250763 420.637268,413.083496 432.057770,413.167480   C439.552429,413.222595 447.049408,413.091644 454.542267,413.220734   C460.011047,413.314941 462.921021,416.012909 462.782990,420.460419   C462.649628,424.757477 459.927155,426.960052 454.535065,426.980896   C444.874908,427.018250 435.214508,426.993195 425.554230,426.994019   C421.798004,426.994354 418.041779,426.994110 414.307312,426.994110   C414.307312,431.031464 414.307312,434.286133 414.307312,438.007416   C425.568176,438.007416 436.523102,438.007416 448.467834,438.007477  M379.817963,422.680023   C384.081879,427.122986 388.142151,431.793396 392.716614,435.889526   C394.392548,437.390259 397.765625,438.683044 399.491913,437.966980   C401.228241,437.246765 402.809143,433.929199 402.854767,431.716705   C403.149963,417.400177 403.006805,403.074615 403.007263,388.752014   C403.007385,385.298065 403.007294,381.844116 403.007294,378.154297   C399.209869,378.154297 395.988220,378.154297 392.059021,378.154297   C392.059021,391.800476 392.059021,405.137848 392.059021,418.475189   C391.543274,418.754608 391.027527,419.033997 390.511749,419.313416   C389.428314,417.881439 388.472992,416.327240 387.241364,415.036652   C376.322876,403.595581 365.364929,392.192139 354.394501,380.800812   C352.212616,378.535217 350.093353,375.744995 346.343018,377.385590   C342.786377,378.941467 342.813263,382.238861 342.817932,385.484711   C342.840820,401.472687 342.818726,417.460785 342.845612,433.448730   C342.847992,434.874542 343.087494,436.299957 343.208191,437.630280   C346.924347,437.630280 350.159241,437.630280 353.942322,437.630280   C353.942322,423.896515 353.942322,410.526581 353.942322,399.784607   C361.678528,406.612122 370.499237,414.396790 379.817963,422.680023  M483.138916,380.793304   C482.912048,382.595734 482.498108,384.397186 482.488770,386.200745   C482.429199,397.691589 482.411163,409.183136 482.472321,420.673981   C482.533386,432.147705 488.249176,437.919312 499.665649,437.998291   C510.823181,438.075500 521.981750,438.028748 533.139709,437.996368   C534.402710,437.992706 535.664917,437.729950 536.823242,437.599121   C536.823242,433.923065 536.823242,430.672974 536.823242,426.982635   C524.342285,426.982635 512.216309,426.839050 500.096710,427.054626   C495.376770,427.138580 493.420624,425.408447 493.503326,420.676086   C493.663391,411.519287 493.708649,402.353760 493.477539,393.199982   C493.378998,389.296906 494.998322,388.438873 498.512177,388.489990   C509.501373,388.649750 520.494507,388.559631 531.485901,388.530945   C533.251831,388.526337 535.017212,388.340363 536.888855,388.232086   C536.888855,384.621094 536.888855,381.531555 536.888855,378.439758   C536.167664,378.195038 535.712097,377.906219 535.255676,377.904999   C519.601685,377.863251 503.947083,377.784821 488.294525,377.928101   C486.709595,377.942596 485.137085,379.317230 483.138916,380.793304  M288.605835,422.131958   C288.587341,412.469055 288.672882,402.804230 288.494629,393.144287   C288.431274,389.712219 289.571320,388.440247 293.080017,388.491913   C304.073761,388.653748 315.071533,388.564819 326.067566,388.531372   C327.985870,388.525543 329.903534,388.317749 331.851471,388.201477   C331.851471,384.542633 331.851471,381.458832 331.851471,378.164703   C330.751282,378.028290 329.953857,377.844208 329.156158,377.843079   C314.161438,377.822144 299.166382,377.879150 284.172180,377.786133   C279.419189,377.756653 277.524170,380.251556 277.510376,384.581665   C277.470612,397.076569 277.223236,409.580811 277.612549,422.064026   C277.943420,432.672089 283.843079,437.899780 294.648743,437.995667   C304.477875,438.082916 314.308411,438.016022 324.138306,438.016968   C326.722626,438.017212 329.306915,438.016968 331.816040,438.016968   C331.816040,433.916016 331.816040,430.666443 331.816040,426.983002   C329.657227,426.983002 327.854156,426.983124 326.051086,426.983002   C315.554749,426.982361 305.058258,426.952484 294.562134,426.999908   C291.640839,427.013123 289.180511,426.574463 288.605835,422.131958  M212.823593,398.547974   C212.824371,406.213104 212.775009,413.878632 212.838135,421.543243   C212.924713,432.059570 218.684280,437.859650 229.296738,437.984863   C238.793503,438.096954 248.292633,438.010406 257.790710,438.011353   C260.882416,438.011658 263.974091,438.011414 267.207214,438.011414   C267.207214,434.005463 267.207214,430.745422 267.207214,426.988617   C265.091461,426.988617 263.297455,426.988708 261.503448,426.988617   C251.005569,426.988007 240.506332,426.888489 230.010452,427.033478   C225.559906,427.094940 223.678009,425.393677 223.790970,420.827209   C224.001068,412.334137 223.825134,403.832062 223.859268,395.333893   C223.882370,389.585999 224.719376,388.639313 230.484451,388.574493   C240.147980,388.465881 249.813538,388.537781 259.478241,388.534424   C268.043945,388.531433 268.053040,388.531158 267.440308,380.082306   C267.394684,379.453033 267.087280,378.842743 266.816162,377.938873   C252.952194,377.938873 239.137878,377.700195 225.339050,378.058411   C219.952225,378.198273 215.865799,381.662262 214.185425,386.778290   C213.074814,390.159607 213.233292,393.957733 212.823593,398.547974  M126.519707,419.496704   C126.521233,423.162506 126.479919,426.828979 126.534042,430.493988   C126.621696,436.429596 128.057648,437.944275 133.925217,437.977448   C145.255508,438.041504 156.586380,437.998413 167.917023,437.999512   C172.366058,437.999908 176.815079,437.999573 181.394897,437.999573   C181.394897,434.016724 181.394897,430.655426 181.394897,426.813232   C166.537369,426.813232 152.112228,426.813232 137.003906,426.813232   C137.003906,410.291046 137.003906,394.245392 137.003906,378.228882   C133.227295,378.228882 130.149902,378.228882 126.519379,378.228882   C126.519379,391.904907 126.519379,405.201263 126.519707,419.496704  M200.613327,378.989777   C197.208084,378.509216 193.802856,378.028625 190.259155,377.528503   C190.259155,398.313293 190.259155,418.003845 190.259155,437.624939   C193.932083,437.624939 197.166656,437.624939 200.781387,437.624939   C200.781387,418.132538 200.781387,399.019562 200.613327,378.989777  M313.489075,402.147064   C306.744110,402.147064 299.999146,402.147064 293.369019,402.147064   C293.369019,406.308350 293.369019,409.553070 293.369019,412.836060   C304.825562,412.836060 315.895844,412.836060 326.986267,412.836060   C326.986267,409.129028 326.986267,405.786499 326.986267,402.147064   C322.455414,402.147064 318.468750,402.147064 313.489075,402.147064  M499.900848,402.218964   C498.988525,405.622040 498.076202,409.025116 497.058899,412.819733   C509.641327,412.819733 520.659485,412.819733 531.857300,412.819733   C531.857300,409.230164 531.857300,406.005188 531.857300,402.174164   C521.312744,402.174164 511.074738,402.174164 499.900848,402.218964  z"
   id="path22" />
<path
   fill="#111820"
   opacity="1.000000"
   stroke="none"
   d=" M217.281540,112.080154   C230.747925,96.794197 245.228470,83.095787 262.216492,72.236870   C286.128418,56.952126 312.064117,47.066578 340.592224,42.918274   C355.052032,42.440784 369.142975,41.179813 383.144562,41.833347   C412.849365,43.219837 440.440765,52.377495 466.602936,67.085693   C484.857880,78.254799 501.174103,91.204681 515.137329,107.120514   C535.239319,130.033585 549.273865,156.129181 557.669434,185.732620   C559.608154,195.684982 561.874390,205.283340 562.942871,215.013229   C567.181213,253.608139 560.459534,290.314484 542.666626,325.607239   C540.459473,329.522980 538.336731,332.744232 536.743591,336.208984   C535.044983,339.903137 532.534607,340.945770 528.535400,340.920532   C500.896027,340.746246 473.255005,340.835785 445.614502,340.821320   C444.043030,340.820496 442.471588,340.649750 440.419434,340.530060   C475.203766,305.739014 509.522278,271.413849 544.813538,236.115768   C542.613831,234.546997 540.928345,233.662094 539.639404,232.378906   C513.560425,206.417145 487.535828,180.400757 461.476746,154.418945   C456.294128,149.251694 451.014526,144.181747 445.623566,138.781219   C436.804749,129.852646 428.141998,121.209801 420.032349,113.118797   C408.518463,124.633751 397.404144,135.749084 386.767975,146.386246   C401.949890,161.916245 417.511688,177.834793 433.249115,194.044342   C447.504303,208.197983 461.583893,222.060623 476.748535,236.991592   C445.976654,267.517059 415.912262,297.340759 384.773224,328.230469   C389.358948,332.191864 393.812378,336.038971 398.265808,339.886078   C398.100433,340.274567 397.935059,340.663055 397.769653,341.051544   C389.180267,341.051544 380.590881,341.051544 371.538788,340.970367   C360.418457,340.889191 349.760803,340.889191 339.103180,340.889191   C338.840424,340.298218 338.577667,339.707214 338.314911,339.116241   C342.729797,335.166992 347.144653,331.217712 352.004944,326.870026   C321.480896,296.550690 291.492432,266.763336 261.078735,236.553650   C291.451965,206.183228 321.333588,176.304398 350.802155,146.838547   C339.524628,135.556564 328.391754,124.419304 317.513306,113.536575   C276.714020,154.528778 235.548309,195.889099 193.128769,238.509216   C226.944366,272.310303 261.223816,306.575012 295.493439,340.829926   C293.888641,340.829926 291.920135,340.824188 289.951660,340.830750   C268.301605,340.903168 246.651581,340.977478 225.001541,341.051270   C218.841125,340.976929 212.667023,341.108276 206.528885,340.699432   C204.748245,340.580872 202.208389,339.345642 201.481598,337.890533   C195.392914,325.700134 188.832901,313.645966 184.035812,300.938843   C179.676086,289.390320 177.141800,277.124969 174.233200,265.071777   C173.247711,260.987885 173.618225,256.583649 173.294250,252.331497   C172.904938,247.221817 171.894302,242.097076 172.092758,237.015564   C173.070084,211.993042 176.932358,187.592529 186.465698,164.130600   C194.137726,145.249496 204.575790,128.232147 217.281540,112.080154  z"
   id="path24" />













</svg>
